<svg version="1.0" xmlns="http://www.w3.org/2000/svg"
 width="64.000000pt" height="64.000000pt" viewBox="0 0 64.000000 64.000000"
 preserveAspectRatio="xMidYMid meet">
<g transform="translate(0.000000,64.000000) scale(0.100000,-0.100000)"
fill="#a3bffa" stroke="none">
<path d="M133 528 c-5 -7 -20 -42 -33 -78 -13 -36 -28 -68 -32 -71 -5 -3 -7
-61 -6 -130 l3 -124 255 0 255 0 3 124 c1 69 -1 127 -6 130 -4 3 -19 35 -32
71 -13 36 -28 71 -33 78 -7 9 -57 12 -187 12 -130 0 -180 -3 -187 -12z m335
-45 c17 -16 42 -71 42 -94 0 -5 -8 -9 -19 -9 -13 0 -22 -12 -31 -46 -20 -70
-28 -74 -140 -74 -112 0 -120 4 -140 74 -9 34 -18 46 -31 46 -22 0 -23 5 -8
51 21 63 36 69 179 69 107 0 131 -3 148 -17z"/>
</g>
</svg>
