<svg version="1.0" xmlns="http://www.w3.org/2000/svg"
 width="64.000000pt" height="64.000000pt" viewBox="0 0 64.000000 64.000000"
 preserveAspectRatio="xMidYMid meet">
<g transform="translate(0.000000,64.000000) scale(0.100000,-0.100000)"
fill="#3DADFD" stroke="none">
<path d="M126 554 c-21 -21 -26 -36 -26 -74 0 -38 5 -53 26 -74 38 -37 110
-37 148 0 37 38 37 110 0 148 -21 21 -36 26 -74 26 -38 0 -53 -5 -74 -26z"/>
<path d="M366 494 c-21 -21 -26 -36 -26 -74 0 -38 5 -53 26 -74 38 -37 110
-37 148 0 37 38 37 110 0 148 -21 21 -36 26 -74 26 -38 0 -53 -5 -74 -26z"/>
<path d="M126 294 c-37 -38 -37 -110 0 -148 38 -37 110 -37 148 0 37 38 37
110 0 148 -21 21 -36 26 -74 26 -38 0 -53 -5 -74 -26z"/>
<path d="M366 234 c-21 -21 -26 -36 -26 -74 0 -66 34 -100 100 -100 66 0 100
34 100 100 0 38 -5 53 -26 74 -21 21 -36 26 -74 26 -38 0 -53 -5 -74 -26z"/>
</g>
</svg>
